<?xml version="1.0" encoding="UTF-8"?>
<svg id="Layer_1" xmlns="http://www.w3.org/2000/svg" version="1.1" viewBox="0 0 360 360">
  <!-- Generator: Adobe Illustrator 29.7.1, SVG Export Plug-In . SVG Version: 2.1.1 Build 8)  -->
  <defs>
    <style>
      .st0 {
        font-family: Lato-Bold, Lato;
        font-size: 11px;
        font-weight: 700;
        letter-spacing: .22em;
      }

      .st1 {
        fill: #012751;
        font-family: Anton-Regular, Anton;
        font-size: 40px;
      }

      .st2 {
        fill: #00b4e8;
      }

      .st3 {
        fill: #015494;
      }

      .st4 {
        fill: #fe8800;
      }
    </style>
  </defs>
  <text class="st1" transform="translate(151.61 200.03)"><tspan x="0" y="0">SKY AIR</tspan></text>
  <text class="st0" transform="translate(153.45 212.58)"><tspan x="0" y="0">Courier Service</tspan></text>
  <g>
    <path class="st3" d="M142.87,198.16s-3.71,9.89-13.66,13.82c-2.42.96-4.98,1.37-4.98,1.37-1.41.23-2.82.33-4.22.31,0,0-.04,0-.11,0-.16,0-.52.01-1.06-.02v-.03c-3.95-5.41-7.89-10.81-11.84-16.22,10.21,8.29,24.48,5.74,30.2-3.02,4.47-6.85,3.46-17.09-3.14-24.31,1.66,1.18,7.49,5.64,9.57,13.93.53,2.11,1.64,7.76-.76,14.16Z"/>
    <path class="st4" d="M102.86,206.36c-1.46-1.64-3.47-4.29-4.92-7.97-.82-2.08-3.46-8.8-.99-16.3,3.03-9.16,11.25-13.11,14-14.23,3.66-1.49,6.98-1.8,9.17-1.83-2.97,1.96-6.89,5.05-10.47,9.71-3.02,3.94-4.64,7.47-5.33,9.11-1.4,3.32-3.33,8.02-2.96,14.16.19,3.1.89,5.62,1.5,7.34Z"/>
    <path class="st2" d="M139.48,162.12c-.11-.11-.29-.11-.4,0l-.16.16-.48-3.24.74-.74c.11-.11.11-.29,0-.4l-.24-.23c-.11-.11-.29-.11-.4,0l-.27.27-.47-3.21c.13-.11.25-.23.37-.34,3.66-3.34,3.86-4.7,3.39-5.73-.03-.07-.09-.13-.17-.17-1.04-.46-2.39-.25-5.71,3.43-.11.12-.22.25-.33.37l-3.21-.45.27-.27c.11-.11.11-.29,0-.4l-.24-.23c-.11-.11-.29-.11-.4,0l-.74.74-3.24-.45.16-.16c.11-.11.11-.29,0-.4l-.24-.23c-.11-.11-.29-.11-.4,0l-.64.64-2.6-.36-1.54,1.56,9.73,3.57c-1.71,2.01-3.35,4-4.49,5.39l-3.36-.58-1.03,1.04,2.75,1.43c-.75.68-1.53,1.38-2.33,2.13-7.19,6.71-10.79,10.06-13.98,15.23-8.01,12.97-5.52,23.82-4.88,25.37.49,1.19,1.2,2.2,1.2,2.21.56.83,1.32,1.71,2.36,2.47,0,0,2.63,1.79,8.43,2.86.17.03.34.06.5.08.54.09,1.01.13,1.38.16.54.03.9.03,1.06.02.05,0,.09,0,.11,0,.41-.02,3.45-.24,4.47-.37,2.55-.32,6.21-1.87,6.96-2.19-1.38.08-6.04.18-9.59-3.08-2.04-1.88-2.74-4.05-3.66-6.86-.68-2.07-1.8-6.33-1.26-11.95.36-3.73,1.35-7.04,3.36-11.53,1.52-3.39,3.78-7.83,7.17-12.88l1.04,1.95,1.03-1.04-.56-3.09c.18-.25.35-.49.53-.74,1.33-1.11,3.04-2.55,4.78-4.05l3.65,9.7,1.54-1.56-.38-2.6.64-.64c.11-.11.11-.29,0-.4l-.24-.23Z"/>
  </g>
</svg>