<?xml version="1.0" encoding="UTF-8"?>
<svg id="Layer_1" xmlns="http://www.w3.org/2000/svg" version="1.1" viewBox="0 0 360 360">
  <!-- Generator: Adobe Illustrator 29.7.1, SVG Export Plug-In . SVG Version: 2.1.1 Build 8)  -->
  <defs>
    <style>
      .st0 {
        fill: #00b4e8;
      }

      .st1 {
        fill: #015494;
      }

      .st2 {
        fill: #fe8800;
      }
    </style>
  </defs>
  <path class="st1" d="M215.18,206.97s-4.95,13.2-18.22,18.44c-3.23,1.28-6.65,1.83-6.65,1.83-1.88.31-3.76.44-5.63.41,0,0-.05,0-.15,0-.22,0-.7.01-1.42-.03v-.04c-5.27-7.22-10.53-14.43-15.8-21.65,13.63,11.07,32.67,7.66,40.3-4.02,5.97-9.14,4.61-22.81-4.18-32.44,2.21,1.58,10,7.53,12.77,18.59.71,2.82,2.19,10.35-1.01,18.9Z"/>
  <path class="st2" d="M161.78,217.9c-1.95-2.19-4.64-5.73-6.57-10.64-1.09-2.77-4.62-11.75-1.31-21.75,4.04-12.22,15.01-17.49,18.68-18.98,4.89-1.99,9.32-2.4,12.24-2.44-3.97,2.61-9.2,6.74-13.97,12.96-4.04,5.25-6.19,9.97-7.12,12.15-1.87,4.43-4.45,10.7-3.95,18.9.25,4.13,1.19,7.49,2,9.8Z"/>
  <path class="st0" d="M210.66,158.88c-.15-.15-.38-.14-.53,0l-.22.22-.64-4.32.99-.99c.15-.15.14-.38,0-.53l-.32-.31c-.15-.15-.38-.14-.53,0l-.36.36-.63-4.28c.17-.15.33-.3.49-.45,4.88-4.46,5.15-6.27,4.52-7.65-.04-.1-.13-.18-.23-.22-1.39-.61-3.2-.33-7.62,4.58-.15.16-.3.33-.45.5l-4.29-.6.36-.36c.15-.15.14-.38,0-.53l-.32-.31c-.15-.15-.38-.14-.53,0l-.99.99-4.33-.61.22-.22c.15-.15.14-.38,0-.53l-.32-.31c-.15-.15-.38-.14-.53,0l-.85.85-3.47-.49-2.06,2.08,12.99,4.77c-2.28,2.68-4.46,5.33-5.99,7.19l-4.48-.77-1.37,1.38,3.67,1.91c-1.01.9-2.04,1.84-3.11,2.84-9.6,8.95-14.4,13.43-18.66,20.33-10.69,17.31-7.37,31.79-6.51,33.86.66,1.59,1.6,2.94,1.61,2.94.75,1.11,1.76,2.28,3.15,3.3,0,0,3.51,2.39,11.25,3.82.23.04.45.08.67.1.73.12,1.35.17,1.85.21.72.04,1.2.04,1.42.03.06,0,.12,0,.15,0,.54-.03,4.61-.32,5.96-.49,3.4-.43,8.29-2.49,9.28-2.92-1.84.11-8.06.24-12.79-4.11-2.72-2.51-3.65-5.41-4.88-9.16-.9-2.76-2.41-8.45-1.69-15.95.48-4.97,1.8-9.4,4.48-15.38,2.02-4.52,5.05-10.45,9.57-17.18l1.38,2.61,1.37-1.38-.74-4.12c.24-.33.47-.66.71-.99,1.77-1.48,4.06-3.4,6.38-5.4l4.87,12.95,2.06-2.08-.51-3.47.85-.85c.15-.15.14-.38,0-.53l-.32-.31Z"/>
</svg>